<svg xmlns="http://www.w3.org/2000/svg" width="192" height="288" viewBox="0 0 64 96"><defs>
<radialGradient id="guard-shadow" cx=".5" cy=".5" r=".5"><stop offset="0" stop-color="#02060a" stop-opacity=".8"/><stop offset=".6" stop-color="#02060a" stop-opacity=".42"/><stop offset="1" stop-color="#02060a" stop-opacity="0"/></radialGradient>
<linearGradient id="guard-steel" gradientUnits="userSpaceOnUse" x1="16" y1="20" x2="48" y2="82"><stop offset="0" stop-color="#b3a6b0"/><stop offset=".3" stop-color="#76697f"/><stop offset=".65" stop-color="#453c58"/><stop offset="1" stop-color="#1d2133"/></linearGradient>
<linearGradient id="guard-dark" gradientUnits="userSpaceOnUse" x1="20" y1="60" x2="44" y2="84"><stop offset="0" stop-color="#3f364f"/><stop offset="1" stop-color="#111622"/></linearGradient>
<linearGradient id="guard-cloth" x1="0" y1="0" x2="1" y2="1"><stop offset="0" stop-color="#6a3f55"/><stop offset=".5" stop-color="#43273f"/><stop offset="1" stop-color="#1e1328"/></linearGradient>
<linearGradient id="guard-gold" x1="0" y1="0" x2="0" y2="1"><stop offset="0" stop-color="#fff2bb"/><stop offset=".55" stop-color="#e0a85e"/><stop offset="1" stop-color="#7a5230"/></linearGradient>
<linearGradient id="guard-leather" x1="0" y1="0" x2="1" y2="1"><stop offset="0" stop-color="#7d5a44"/><stop offset="1" stop-color="#33231b"/></linearGradient>
<radialGradient id="guard-lamp" cx=".5" cy=".5" r=".5"><stop offset="0" stop-color="#ffe8a6" stop-opacity=".95"/><stop offset=".35" stop-color="#f3b963" stop-opacity=".45"/><stop offset="1" stop-color="#f3b963" stop-opacity="0"/></radialGradient>
<radialGradient id="guard-flame" cx=".5" cy=".6" r=".5"><stop offset="0" stop-color="#fffdf0"/><stop offset=".5" stop-color="#ffd37a"/><stop offset="1" stop-color="#f08a3a"/></radialGradient>
<filter id="guard-glow" x="-100%" y="-100%" width="300%" height="300%"><feGaussianBlur stdDeviation=".9"/></filter>
<filter id="guard-soft" x="-10%" y="-10%" width="120%" height="120%"><feGaussianBlur stdDeviation=".3"/></filter>
<filter id="guard-grain" filterUnits="userSpaceOnUse" x="0" y="0" width="64" height="96" color-interpolation-filters="sRGB"><feTurbulence type="fractalNoise" baseFrequency="1.2" numOctaves="2" seed="9"/><feColorMatrix type="matrix" values="0 0 0 0 0 0 0 0 0 0 0 0 0 0 0 -3 0 0 0 1.25"/></filter>
<clipPath id="guard-torso"><path d="M22 41C22 40 26 38.6 32 38.6S42 40 42 41L43.4 52 41.4 60.8H22.6L20.6 52Z"/></clipPath></defs>
<ellipse cx="32" cy="80.5" rx="17.5" ry="7.4" fill="url(#guard-shadow)"/>
<ellipse cx="53.5" cy="68.5" rx="10" ry="12" fill="url(#guard-lamp)"/>
<path d="M23.2 64.5L30.6 64.5 30 79.5 22.4 79.5Z" fill="url(#guard-dark)" stroke="#0a0d17" stroke-width=".5" stroke-linejoin="round"/><path d="M33.4 64.5L40.8 64.5 41.6 79.5 34 79.5Z" fill="url(#guard-dark)" stroke="#0a0d17" stroke-width=".5" stroke-linejoin="round"/>
<path d="M23.4 70.5H30.3M23 75H30.1M33.7 70.5H41M34 75H41.4" stroke="#a79bb0" stroke-opacity=".3" stroke-width=".5"/>
<path d="M21.2 78.4C21 81.6 23 83.4 28 83.4H31L31 79.4 30 78.4Z" fill="url(#guard-steel)" stroke="#0a0d17" stroke-width=".5" stroke-linejoin="round"/><path d="M33 79.4L33 83.4H36.2C41.4 83.4 43.4 81.6 42.6 78.4L34 78.4Z" fill="url(#guard-steel)" stroke="#0a0d17" stroke-width=".5" stroke-linejoin="round"/>
<path d="M22 80.6C25 82 28 82.2 30.5 81.8" stroke="#ffe0a0" stroke-opacity=".4" stroke-width=".4" fill="none"/>
<path d="M21.6 59.4L42.4 59.4 45.4 73 32 76.6 18.6 73Z" fill="url(#guard-cloth)" stroke="#150c1c" stroke-width=".6" stroke-linejoin="round"/>
<path d="M32 59.8V76.2M26 60L24 74.4M38 60L40 74.4" stroke="#0e0714" stroke-opacity=".6" stroke-width=".6"/><path d="M19.4 72.2 32 75.6 44.6 72.2" fill="none" stroke="url(#guard-gold)" stroke-width=".6" stroke-opacity=".8"/>
<path d="M32 63.6C29.4 66 29.4 69 32 71.4 34.6 69 34.6 66 32 63.6Z" fill="none" stroke="#f3b963" stroke-width=".7"/><circle cx="32" cy="67.5" r="1.1" fill="#ffe3a0"/>
<path d="M22 41C22 40 26 38.6 32 38.6S42 40 42 41L43.4 52 41.4 60.8H22.6L20.6 52Z" fill="url(#guard-steel)" stroke="#0b0e18" stroke-width=".7" stroke-linejoin="round"/>
<g clip-path="url(#guard-torso)">
<path d="M32 39V61" stroke="#171a28" stroke-width=".9"/><path d="M33 39V61" stroke="#d3c7d3" stroke-opacity=".3" stroke-width=".5"/>
<path d="M22 47C27 51 37 51 42 47M22 54C27 58 37 58 42 54" fill="none" stroke="#14172a" stroke-opacity=".7" stroke-width=".8"/><path d="M22 47.8C27 52 37 52 42 47.8M22 54.8C27 59 37 59 42 54.8" fill="none" stroke="#e5dce6" stroke-opacity=".28" stroke-width=".45"/>
<ellipse cx="25.5" cy="46" rx="4.4" ry="8" fill="#fff" opacity=".14" filter="url(#guard-soft)"/>
<rect x="35" y="38" width="9" height="24" fill="#f3b963" opacity=".14"/>
<rect width="64" height="96" filter="url(#guard-grain)" opacity=".24"/>
</g>
<circle cx="25.2" cy="44" r=".6" fill="#e9dfe9" opacity=".7"/><circle cx="38.8" cy="44" r=".6" fill="#e9dfe9" opacity=".5"/><circle cx="24" cy="53" r=".6" fill="#e9dfe9" opacity=".6"/><circle cx="40" cy="53" r=".6" fill="#e9dfe9" opacity=".4"/>
<path d="M21.5 59.2C27 61.6 37 61.6 42.5 59.2L42.5 62.6C37 65 27 65 21.5 62.6Z" fill="url(#guard-leather)" stroke="#150e0a" stroke-width=".5"/><rect x="29.4" y="59.7" width="5.2" height="3.6" rx=".8" fill="url(#guard-gold)" stroke="#4a2f17" stroke-width=".4"/><rect x="30.6" y="60.7" width="2.8" height="1.6" rx=".4" fill="#2b1a0e"/>
<path d="M14.6 46C13.6 52 13.4 58 14.6 63L19.4 63C19.8 58 20.2 52 20.6 47Z" fill="url(#guard-dark)" stroke="#0a0d17" stroke-width=".6" stroke-linejoin="round"/>
<path d="M13.6 62.4L19.8 62.4 20.4 68.4C18.6 70.2 15.4 70.2 13.4 68.4Z" fill="url(#guard-steel)" stroke="#0a0d17" stroke-width=".5" stroke-linejoin="round"/><path d="M14 64.4H19.6" stroke="#0a0d17" stroke-opacity=".6" stroke-width=".4"/>
<path d="M43.4 46C46.4 49 49.4 52.4 51 56.4L47.6 59.2C45.8 55.6 43.4 52.4 40.6 49.6Z" fill="url(#guard-dark)" stroke="#0a0d17" stroke-width=".6" stroke-linejoin="round"/>
<path d="M49.4 55L55.4 58.6 54.4 63.4C52.6 64.2 50 63.4 48.8 61.4Z" fill="url(#guard-steel)" stroke="#0a0d17" stroke-width=".5" stroke-linejoin="round"/>
<path d="M49.8 60.4 56.4 59.4 56.6 61.8 50.4 63.2Z" fill="#1a1119" opacity=".8"/>
<path d="M53.8 60.4V63.6" stroke="#caa66a" stroke-width=".7" stroke-linecap="round"/>
<path d="M51.6 66.6V66C51.6 64.3 52.6 63.4 53.8 63.4S56 64.3 56 66V66.6" fill="none" stroke="#caa66a" stroke-width=".6"/>
<path d="M51 66.2H56.6L57.4 68.4 57 74 50.4 74 50 68.4Z" fill="#2a1b13" stroke="#caa66a" stroke-width=".5" stroke-linejoin="round"/>
<path d="M51.6 67.4H55.8L56.2 73 51.2 73Z" fill="url(#guard-lamp)"/><g filter="url(#guard-glow)"><ellipse cx="53.7" cy="70.2" rx="2" ry="2.8" fill="#ffe3a0"/></g>
<path d="M53.7 67.8C54.9 69.2 55.4 70.4 54.8 71.8 54.4 72.6 53 72.6 52.6 71.8 52 70.4 52.8 69.2 53.7 67.8Z" fill="url(#guard-flame)"/>
<path d="M50.4 74H57L56.4 75.2 51 75.2Z" fill="#46301f" stroke="#caa66a" stroke-width=".4"/><path d="M53.7 66.6V74" stroke="#caa66a" stroke-opacity=".5" stroke-width=".35"/><path d="M51 74.6C51 76.6 52.4 77.4 53.7 77.4S56.4 76.6 56.4 74.6" fill="none" stroke="#caa66a" stroke-opacity=".7" stroke-width=".4"/>
<path d="M13.4 45.4C12.4 40.4 15.8 37 20.6 37.4 24 38 25 40.4 24.4 44.6 22.6 47.4 17 48.6 13.4 45.4Z" fill="url(#guard-steel)" stroke="#0a0d17" stroke-width=".6" stroke-linejoin="round"/><path d="M14.6 42.4C16 39.4 19.4 38.4 22.4 39.4" fill="none" stroke="#f1e8f1" stroke-opacity=".6" stroke-width=".6" stroke-linecap="round"/><path d="M14.4 44.8C17.6 46.8 21.4 46.4 23.6 44.2" fill="none" stroke="#0a0d17" stroke-opacity=".6" stroke-width=".6"/>
<path d="M50.6 45.4C51.6 40.4 48.2 37 43.4 37.4 40 38 39 40.4 39.6 44.6 41.4 47.4 47 48.6 50.6 45.4Z" fill="url(#guard-steel)" stroke="#0a0d17" stroke-width=".6" stroke-linejoin="round"/><path d="M49.6 42.6C48.4 39.8 45.2 38.6 42.4 39.6" fill="none" stroke="#f1e8f1" stroke-opacity=".4" stroke-width=".6" stroke-linecap="round"/><path d="M49.6 44.8C46.4 46.8 42.6 46.4 40.4 44.2" fill="none" stroke="#0a0d17" stroke-opacity=".6" stroke-width=".6"/>
<path d="M25.4 39.4 32 37.4 38.6 39.4 38 43 32 44.4 26 43Z" fill="url(#guard-dark)" stroke="#0a0d17" stroke-width=".5" stroke-linejoin="round"/><path d="M26 41.2 32 42.4 38 41.2" fill="none" stroke="#a79bb0" stroke-opacity=".35" stroke-width=".4"/>
<path d="M32 11.6C34 16 41.8 20.6 42.6 31.4L42.2 37.6C41 41.6 37 43.8 32 43.8S23 41.6 21.8 37.6L21.4 31.4C22.2 20.6 30 16 32 11.6Z" fill="url(#guard-steel)" stroke="#0b0e18" stroke-width=".7" stroke-linejoin="round"/>
<path d="M32 12.4C33.4 20 33.6 32 32.8 43.6" fill="none" stroke="#14172a" stroke-opacity=".7" stroke-width=".8"/><path d="M32.9 14C34.2 22 34.4 32 33.6 43" stroke="#e5dce6" stroke-opacity=".28" stroke-width=".45" fill="none"/>
<path d="M22.6 29.4C26 29.6 38 29.6 41.4 29.4L41.6 32 22.4 32Z" fill="#171a2b" opacity=".85"/><path d="M22.6 29.4C26 29.8 38 29.8 41.4 29.4" fill="none" stroke="#e5dce6" stroke-opacity=".35" stroke-width=".5"/>
<path d="M24.4 33.2C28 32.2 36 32.2 39.6 33.2L39 37.2C36 38 28 38 25 37.2Z" fill="#07090f" stroke="#0b0e18" stroke-width=".4"/>
<g filter="url(#guard-glow)" opacity=".95"><path d="M26 34.6 30.6 34.4 30.6 36 26.4 36.2Z" fill="#ffb86a"/><path d="M33.4 34.4 38 34.6 37.6 36.2 33.4 36Z" fill="#ffb86a"/></g>
<path d="M26.4 34.9 30.4 34.8 30.2 35.8 26.8 35.9Z" fill="#fff0c4"/><path d="M33.6 34.8 37.6 34.9 37.2 35.9 33.8 35.8Z" fill="#fff0c4"/>
<path d="M27 39.4V42.4M29.6 40V43M34.4 40V43M37 39.4V42.4" stroke="#05070c" stroke-opacity=".7" stroke-width=".6" stroke-linecap="round"/>
<path d="M22.4 22C23 28 22.4 34 22.6 38" fill="none" stroke="#f1e8f1" stroke-opacity=".6" stroke-width=".7" stroke-linecap="round"/>
<path d="M41.4 24C42.4 28 42.4 33 42 37.6" fill="none" stroke="#0a0d17" stroke-opacity=".5" stroke-width=".8" stroke-linecap="round"/>
<path d="M30.4 12.6C31.4 10.4 32.4 10 33.6 12" fill="url(#guard-gold)" stroke="#4a2f17" stroke-width=".35"/><path d="M32 11.2 32.6 7.6 33.2 11.4Z" fill="url(#guard-gold)" stroke="#4a2f17" stroke-width=".3"/>
<path d="M36 13.6C41 14.6 44.6 18.6 45.4 24.4 44.6 21.4 42.6 19.6 39.4 18.6Z" fill="url(#guard-cloth)" stroke="#150c1c" stroke-width=".4"/></svg>
