<svg xmlns="http://www.w3.org/2000/svg" width="192" height="288" viewBox="0 0 64 96"><defs>
<linearGradient id="hide-stone" x1="0" y1="0" x2="1" y2="1"><stop offset="0" stop-color="#5e7889"/><stop offset=".5" stop-color="#3b5365"/><stop offset="1" stop-color="#1e3242"/></linearGradient>
<linearGradient id="hide-side" x1="0" y1="0" x2="1" y2="0"><stop offset="0" stop-color="#17283a"/><stop offset="1" stop-color="#08121c"/></linearGradient>
<linearGradient id="hide-step" x1="0" y1="0" x2="1" y2="1"><stop offset="0" stop-color="#46606f"/><stop offset="1" stop-color="#1f3342"/></linearGradient>
<linearGradient id="hide-void" x1="0" y1="0" x2="0" y2="1"><stop offset="0" stop-color="#02060a"/><stop offset=".55" stop-color="#06131b"/><stop offset="1" stop-color="#0c2a30"/></linearGradient>
<radialGradient id="hide-spill" cx=".5" cy=".5" r=".5"><stop offset="0" stop-color="#a6f3dc" stop-opacity=".55"/><stop offset=".55" stop-color="#4fb6a6" stop-opacity=".2"/><stop offset="1" stop-color="#4fb6a6" stop-opacity="0"/></radialGradient>
<radialGradient id="hide-mist" cx=".5" cy=".5" r=".5"><stop offset="0" stop-color="#7fe0c8" stop-opacity=".5"/><stop offset="1" stop-color="#7fe0c8" stop-opacity="0"/></radialGradient>
<linearGradient id="hide-rune" x1="0" y1="0" x2="0" y2="1"><stop offset="0" stop-color="#e9fff7"/><stop offset="1" stop-color="#5dc9b4"/></linearGradient>
<clipPath id="hide-opening"><path d="M21.5 83V61.5C21.5 50.45 26.225 44.5 32 44.5C37.775 44.5 42.5 50.45 42.5 61.5V83Z"/></clipPath>
<clipPath id="hide-frame"><path clip-rule="evenodd" d="M16 83V60C16 45.7 23.2 38 32 38C40.8 38 48 45.7 48 60V83Z M21.5 83V61.5C21.5 50.45 26.225 44.5 32 44.5C37.775 44.5 42.5 50.45 42.5 61.5V83Z"/></clipPath>
<filter id="hide-blur" x="-30%" y="-30%" width="160%" height="160%"><feGaussianBlur stdDeviation="1.4"/></filter>
<filter id="hide-glow" x="-60%" y="-60%" width="220%" height="220%"><feGaussianBlur stdDeviation=".8"/></filter>
<filter id="hide-grain" filterUnits="userSpaceOnUse" x="0" y="0" width="64" height="96" color-interpolation-filters="sRGB"><feTurbulence type="fractalNoise" baseFrequency="1" numOctaves="3" seed="31"/><feColorMatrix type="matrix" values="0 0 0 0 0 0 0 0 0 0 0 0 0 0 0 -3.2 0 0 0 1.4"/></filter></defs>
<ellipse cx="32" cy="87" rx="29" ry="10" fill="url(#hide-spill)"/>
<polygon points="8 80 32 68 56 80 32 92" fill="url(#hide-step)"/><polygon points="8 80 32 92 32 95 8 83" fill="#15263a"/><polygon points="32 92 56 80 56 83 32 95" fill="#09131d"/>
<path d="M8.4 80.1 32 68.3 55.6 80.1" fill="none" stroke="#d6e8ef" stroke-opacity=".4" stroke-width=".55"/>
<path d="M14 80 32 71 50 80 32 89Z" fill="none" stroke="#7fe0c8" stroke-opacity=".38" stroke-width=".45"/>
<path d="M16 83V60C16 45.7 23.2 38 32 38C40.8 38 48 45.7 48 60V83Z" transform="translate(3.6 -1.8)" fill="url(#hide-side)"/><path d="M16 83V60C16 45.7 23.2 38 32 38C40.8 38 48 45.7 48 60V83Z" transform="translate(2.7 -1.35)" fill="url(#hide-side)"/><path d="M16 83V60C16 45.7 23.2 38 32 38C40.8 38 48 45.7 48 60V83Z" transform="translate(1.8 -0.9)" fill="url(#hide-side)"/><path d="M16 83V60C16 45.7 23.2 38 32 38C40.8 38 48 45.7 48 60V83Z" transform="translate(0.9 -0.45)" fill="url(#hide-side)"/>
<path d="M16 83V60C16 45.7 23.2 38 32 38C40.8 38 48 45.7 48 60V83Z" fill="#050c13"/>
<path d="M21.5 83V61.5C21.5 50.45 26.225 44.5 32 44.5C37.775 44.5 42.5 50.45 42.5 61.5V83Z" fill="url(#hide-void)"/>
<g clip-path="url(#hide-opening)">
<path d="M21.5 40V84H26.5Q25.5 62 28.5 44Z" fill="#000" opacity=".55"/>
<path d="M21.5 44.5Q32 40 42.5 44.5V48Q32 44 21.5 48Z" fill="#000" opacity=".5"/>
<g filter="url(#hide-blur)"><ellipse cx="32" cy="80" rx="11" ry="3.6" fill="url(#hide-mist)"/><ellipse cx="28" cy="73" rx="6" ry="2.4" fill="url(#hide-mist)" opacity=".6"/><ellipse cx="37" cy="66" rx="5" ry="2" fill="url(#hide-mist)" opacity=".4"/></g>
<path d="M26 60Q32 54 38 60M26 66Q32 60 38 66" fill="none" stroke="#8fe9d1" stroke-opacity=".16" stroke-width=".5"/>
</g>
<path d="M16 83V60C16 45.7 23.2 38 32 38C40.8 38 48 45.7 48 60V83Z M21.5 83V61.5C21.5 50.45 26.225 44.5 32 44.5C37.775 44.5 42.5 50.45 42.5 61.5V83Z" fill-rule="evenodd" fill="url(#hide-stone)"/>
<path d="M21.4 60L16 60" stroke="#050c13" stroke-opacity=".75" stroke-width=".55"/><path d="M21.85 60.1L16.45 60.1" stroke="#c4dae4" stroke-opacity=".13" stroke-width=".35"/><path d="M22.45 53.27L17.58 50.45" stroke="#050c13" stroke-opacity=".75" stroke-width=".55"/><path d="M22.9 53.37L18.03 50.55" stroke="#c4dae4" stroke-opacity=".13" stroke-width=".35"/><path d="M25.39 47.88L22.02 42.8" stroke="#050c13" stroke-opacity=".75" stroke-width=".55"/><path d="M25.84 47.98L22.47 42.9" stroke="#c4dae4" stroke-opacity=".13" stroke-width=".35"/><path d="M29.64 44.89L28.44 38.55" stroke="#050c13" stroke-opacity=".75" stroke-width=".55"/><path d="M30.09 44.99L28.89 38.65" stroke="#c4dae4" stroke-opacity=".13" stroke-width=".35"/><path d="M34.36 44.89L35.56 38.55" stroke="#050c13" stroke-opacity=".75" stroke-width=".55"/><path d="M34.81 44.99L36.01 38.65" stroke="#c4dae4" stroke-opacity=".13" stroke-width=".35"/><path d="M38.61 47.88L41.98 42.8" stroke="#050c13" stroke-opacity=".75" stroke-width=".55"/><path d="M39.06 47.98L42.43 42.9" stroke="#c4dae4" stroke-opacity=".13" stroke-width=".35"/><path d="M41.55 53.27L46.42 50.45" stroke="#050c13" stroke-opacity=".75" stroke-width=".55"/><path d="M42 53.37L46.87 50.55" stroke="#c4dae4" stroke-opacity=".13" stroke-width=".35"/><path d="M42.6 60L48 60" stroke="#050c13" stroke-opacity=".75" stroke-width=".55"/><path d="M43.05 60.1L48.45 60.1" stroke="#c4dae4" stroke-opacity=".13" stroke-width=".35"/><path d="M16 54H21.5M42.5 54H48" stroke="#050c13" stroke-opacity=".75" stroke-width=".55"/><path d="M16 54.5H21.5M42.5 54.5H48" stroke="#c4dae4" stroke-opacity=".12" stroke-width=".35"/><path d="M16 62H21.5M42.5 62H48" stroke="#050c13" stroke-opacity=".75" stroke-width=".55"/><path d="M16 62.5H21.5M42.5 62.5H48" stroke="#c4dae4" stroke-opacity=".12" stroke-width=".35"/><path d="M16 70H21.5M42.5 70H48" stroke="#050c13" stroke-opacity=".75" stroke-width=".55"/><path d="M16 70.5H21.5M42.5 70.5H48" stroke="#c4dae4" stroke-opacity=".12" stroke-width=".35"/><path d="M16 77H21.5M42.5 77H48" stroke="#050c13" stroke-opacity=".75" stroke-width=".55"/><path d="M16 77.5H21.5M42.5 77.5H48" stroke="#c4dae4" stroke-opacity=".12" stroke-width=".35"/>
<rect width="64" height="96" clip-path="url(#hide-frame)" filter="url(#hide-grain)" opacity=".38"/>
<path d="M16.5 82.8V60.5C16.5 46.2 23.475 38.5 32 38.5C40.525 38.5 47.5 46.2 47.5 60.5V82.8Z" fill="none" stroke="#e1f1f7" stroke-opacity=".45" stroke-width=".55"/>
<path d="M21.5 83V61.5C21.5 50.45 26.225 44.5 32 44.5C37.775 44.5 42.5 50.45 42.5 61.5V83Z" fill="none" stroke="#7fe0c8" stroke-opacity=".6" stroke-width=".7"/>
<g filter="url(#hide-glow)"><path d="M32 33.5 36 38.5 32 43.5 28 38.5Z" fill="#7fe0c8" opacity=".75"/></g>
<path d="M32 33.5 36 38.5 32 43.5 28 38.5Z" fill="#0a1d26" stroke="url(#hide-rune)" stroke-width=".8"/><path d="M32 36.2V40.8M29.8 38.5H34.2" stroke="#e9fff7" stroke-width=".6" stroke-linecap="round"/>
<rect x="15" y="81" width="34" height="2.2" fill="#08121b" opacity=".6"/><path d="M15 81H49" stroke="#7fe0c8" stroke-opacity=".35" stroke-width=".4"/>
</svg>
