<svg xmlns="http://www.w3.org/2000/svg" width="64" height="96" viewBox="0 0 64 96"><defs><linearGradient id="stone" x2=".6" y2="1"><stop stop-color="#496075"/><stop offset="1" stop-color="#172837"/></linearGradient><linearGradient id="left" x2=".2" y2="1"><stop stop-color="#344a5c"/><stop offset="1" stop-color="#152331"/></linearGradient><linearGradient id="right" x2="1" y2="1"><stop stop-color="#25394b"/><stop offset="1" stop-color="#0c1825"/></linearGradient><linearGradient id="cloak" x2=".8" y2="1"><stop stop-color="#99d9ce"/><stop offset=".3" stop-color="#397e80"/><stop offset="1" stop-color="#102d3d"/></linearGradient><linearGradient id="guard" x2=".5" y2="1"><stop stop-color="#796b70"/><stop offset=".5" stop-color="#443c50"/><stop offset="1" stop-color="#1c2031"/></linearGradient><linearGradient id="gold" x2=".5" y2="1"><stop stop-color="#fff2bb"/><stop offset=".55" stop-color="#dfa662"/><stop offset="1" stop-color="#72502d"/></linearGradient><radialGradient id="light"><stop stop-color="#ffe5a4" stop-opacity=".85"/><stop offset=".3" stop-color="#e6b574" stop-opacity=".3"/><stop offset="1" stop-color="#e6b574" stop-opacity="0"/></radialGradient><radialGradient id="teal"><stop stop-color="#a1f1da" stop-opacity=".35"/><stop offset="1" stop-color="#60b6ac" stop-opacity="0"/></radialGradient></defs><g id="shadow"><ellipse cx="32" cy="80" rx="16" ry="7" fill="#040d16" opacity=".6"/></g><g id="boots"><path d="m23 68-3 11q6 5 12-1l1-8m3-1 1 11q9 5 13-2l-7-10" fill="#0c202a"/><path d="m21 79 10 1m8 0 9-2" stroke="#69a8a0" stroke-opacity=".45"/></g><g id="cloak"><path d="M24 39q-7 13-8 32l15 8 17-8q-1-19-10-32Z" fill="url(#cloak)" stroke="#193c48"/><path d="M31 42q-9 22-10 29l10 6 11-6q-8-13-8-29" fill="#216066" opacity=".7"/><path d="m30 43-4 27m8-22 6 23m-20-2 11 7 13-7" fill="none" stroke="#a0e0ce" stroke-opacity=".25"/><path d="M17 62q-2 5 1 8l5-1 1-8m18-2 5 4-1 6-4-1" fill="#87b7ad"/><path d="m20 52 23 2-3 4-17-2Z" fill="#143440"/><path d="m29 53 5 .3-.3 3-5-.3Z" fill="#c4cba1"/></g><g id="hood"><path d="M17 40q-3-14 12-23 17 7 18 23l-15 13Z" fill="url(#cloak)" stroke="#9bd6c4" stroke-width=".7"/><path d="M22 37q0-9 9-12 10 5 10 14l-9 9Z" fill="#0c2330"/><path d="m25 34 6-4 6 5-6 9Z" fill="#213e46"/><path d="m26 36 3 1m4 0 3-1" stroke="#c6eee2" stroke-width="1.3"/><path d="M29 20q-8 12-8 18m12-14q9 9 10 17" fill="none" stroke="#d0efdc" stroke-opacity=".4"/><path d="m32 46-3 7 6 3 3-6" fill="#67b5a6"/><circle cx="32" cy="51" r="1.6" fill="#e0d6a3"/></g></svg>